<svg xmlns="http://www.w3.org/2000/svg" width="1200" height="675" viewBox="0 0 1200 675" fill="none">
  <rect width="1200" height="675" fill="#F0F9FF"/>
  <rect y="520" width="1200" height="155" fill="#DBEAFE"/>
  <rect x="90" y="90" width="1020" height="290" rx="22" fill="#FFFFFF" stroke="#93C5FD" stroke-width="6"/>
  <rect x="145" y="140" width="300" height="190" rx="14" fill="#0EA5E9"/>
  <circle cx="770" cy="272" r="60" fill="#F8CBAB"/>
  <rect x="722" y="332" width="96" height="124" rx="20" fill="#0284C7"/>
  <rect x="684" y="362" width="36" height="90" rx="16" fill="#0284C7"/>
  <rect x="820" y="362" width="36" height="90" rx="16" fill="#0284C7"/>
  <circle cx="930" cy="398" r="34" fill="#F8CFB1"/>
  <rect x="904" y="432" width="52" height="74" rx="14" fill="#0EA5E9"/>
  <circle cx="1025" cy="407" r="33" fill="#F8CFB1"/>
  <rect x="999" y="440" width="52" height="72" rx="14" fill="#38BDF8"/>
  <rect x="520" y="498" width="570" height="22" rx="11" fill="#7DD3FC"/>
  <g fill="#67E8F9">
    <circle cx="230" cy="440" r="28"/>
    <circle cx="315" cy="440" r="28"/>
    <circle cx="400" cy="440" r="28"/>
  </g>
  <rect x="180" y="478" width="270" height="38" rx="14" fill="#BAE6FD"/>
</svg>
