<svg xmlns="http://www.w3.org/2000/svg" width="1200" height="675" viewBox="0 0 1200 675" fill="none">
  <rect width="1200" height="675" fill="#E7F1FF"/>
  <rect y="520" width="1200" height="155" fill="#D5E7FF"/>
  <rect x="120" y="90" width="520" height="280" rx="18" fill="#FDFEFF" stroke="#9BBFF5" stroke-width="6"/>
  <rect x="155" y="130" width="450" height="160" rx="10" fill="#1E3A8A"/>
  <rect x="175" y="160" width="220" height="14" rx="7" fill="#93C5FD"/>
  <rect x="175" y="188" width="310" height="14" rx="7" fill="#60A5FA"/>
  <rect x="175" y="216" width="270" height="14" rx="7" fill="#93C5FD"/>
  <rect x="175" y="244" width="180" height="14" rx="7" fill="#60A5FA"/>
  <circle cx="760" cy="270" r="58" fill="#F6C39E"/>
  <rect x="715" y="325" width="92" height="120" rx="20" fill="#2563EB"/>
  <rect x="680" y="350" width="35" height="86" rx="16" fill="#2563EB"/>
  <rect x="807" y="350" width="35" height="86" rx="16" fill="#2563EB"/>
  <rect x="735" y="446" width="26" height="68" rx="13" fill="#1E40AF"/>
  <rect x="767" y="446" width="26" height="68" rx="13" fill="#1E40AF"/>
  <circle cx="938" cy="350" r="38" fill="#F8C8A5"/>
  <rect x="905" y="388" width="66" height="84" rx="16" fill="#10B981"/>
  <circle cx="1020" cy="370" r="34" fill="#F8C8A5"/>
  <rect x="992" y="404" width="56" height="70" rx="14" fill="#0EA5E9"/>
  <rect x="860" y="518" width="230" height="20" rx="10" fill="#9FB6D6"/>
  <rect x="250" y="480" width="390" height="34" rx="12" fill="#8AAEDB"/>
  <rect x="295" y="514" width="18" height="76" rx="9" fill="#6B92C4"/>
  <rect x="576" y="514" width="18" height="76" rx="9" fill="#6B92C4"/>
</svg>
