<svg xmlns="http://www.w3.org/2000/svg" width="1200" height="675" viewBox="0 0 1200 675" fill="none">
  <rect width="1200" height="675" fill="#EEF2FF"/>
  <rect y="520" width="1200" height="155" fill="#DDE7FF"/>
  <rect x="100" y="100" width="1000" height="270" rx="22" fill="#FFFFFF" stroke="#C7D2FE" stroke-width="6"/>
  <rect x="160" y="145" width="320" height="180" rx="14" fill="#1D4ED8"/>
  <circle cx="705" cy="255" r="62" fill="#F7C8A6"/>
  <rect x="655" y="315" width="100" height="124" rx="20" fill="#4338CA"/>
  <rect x="615" y="345" width="37" height="90" rx="16" fill="#4338CA"/>
  <rect x="758" y="345" width="37" height="90" rx="16" fill="#4338CA"/>
  <rect x="680" y="438" width="28" height="72" rx="14" fill="#3730A3"/>
  <rect x="713" y="438" width="28" height="72" rx="14" fill="#3730A3"/>
  <rect x="230" y="410" width="280" height="106" rx="14" fill="#BFDBFE"/>
  <rect x="260" y="530" width="22" height="70" rx="11" fill="#93C5FD"/>
  <rect x="459" y="530" width="22" height="70" rx="11" fill="#93C5FD"/>
  <circle cx="920" cy="395" r="36" fill="#F8CEB0"/>
  <rect x="892" y="430" width="56" height="78" rx="15" fill="#6366F1"/>
  <circle cx="1012" cy="405" r="33" fill="#F8CEB0"/>
  <rect x="986" y="436" width="52" height="73" rx="14" fill="#818CF8"/>
</svg>
